<mxfile host="app.diagrams.net" modified="2024-06-09T16:36:57.292Z" agent="Mozilla/5.0 (Windows NT 10.0; Win64; x64) AppleWebKit/537.36 (KHTML, like Gecko) Chrome/123.0.0.0 Safari/537.36 OPR/109.0.0.0" version="24.5.2" etag="0raPS5-klwYY8V0ydGCs" type="github">
  <diagram name="PÃ¡gina-1" id="S-Tu2e_NNQtqXUpJ0CWE">
    <mxGraphModel>
      <root>
        <mxCell id="0" />
        <mxCell id="1" parent="0" />
      </root>
    </mxGraphModel>
  </diagram>
</mxfile>
